<svg width="30" height="30" viewBox="0 0 30 30" fill="none" xmlns="http://www.w3.org/2000/svg">
<g clip-path="url(#clip0_1_2)">
<g clip-path="url(#clip1_1_2)">
<path fill-rule="evenodd" clip-rule="evenodd" d="M15.1267 0.0336151C16.0143 0.0336151 16.7339 0.753157 16.7339 1.64076V3.1461C20.9974 3.90523 24.2344 7.63087 24.2344 12.1125V12.2783L16.3228 7.75732C15.5817 7.33382 14.6718 7.33382 13.9307 7.75732L6.01882 12.2784V12.1125C6.01882 7.63078 9.25594 3.90508 13.5196 3.14606V1.64076C13.5196 0.753157 14.2391 0.0336151 15.1267 0.0336151ZM1.8355 19.9951H2.57773V26.7405H2.36128C1.47368 26.7405 0.754135 27.4601 0.754135 28.3476C0.754135 29.2352 1.47368 29.9548 2.36128 29.9548H27.8923C28.7799 29.9548 29.4994 29.2352 29.4994 28.3476C29.4994 27.4601 28.7799 26.7405 27.8923 26.7405H27.6754V19.9951H28.4179C28.9037 19.9951 29.3289 19.6682 29.4536 19.1987C29.5783 18.7291 29.3713 18.2345 28.9496 17.9934L15.6583 10.3984C15.3289 10.2102 14.9246 10.2102 14.5952 10.3984L1.30393 17.9934C0.882115 18.2345 0.675274 18.7291 0.799969 19.1987C0.924662 19.6682 1.34968 19.9951 1.8355 19.9951ZM5.79202 26.7405V19.9951H8.04866V26.7405H5.79202ZM11.2629 26.7405V19.9951H13.5195V26.7405H11.2629ZM16.7337 26.7405V19.9951H18.9904V26.7405H16.7337ZM22.2047 26.7405V19.9951H24.4611V26.7405H22.2047Z" fill="#1BA211"/>
</g>
<g clip-path="url(#clip2_1_2)">
<path fill-rule="evenodd" clip-rule="evenodd" d="M17.1735 0.395155C18.4342 0.486505 19.7478 1.10105 21.0053 2.34481C22.2624 1.1014 23.5749 0.488023 24.8344 0.398704C26.2559 0.297891 27.5126 0.872412 28.4218 1.77885C30.2093 3.56103 30.7707 6.78589 28.5526 9.00405C28.5451 9.01154 28.5374 9.01884 28.5296 9.02594L21.4368 15.4506C21.1919 15.6724 20.8186 15.6724 20.5737 15.4506L13.4809 9.02594C13.4731 9.01884 13.4654 9.01154 13.458 9.00405C11.2282 6.77433 11.7866 3.5491 13.58 1.76831C14.4915 0.863297 15.7507 0.292067 17.1735 0.395155Z" fill="#DB2777"/>
</g>
</g>
<defs>
<clipPath id="clip0_1_2">
<rect width="30" height="30" fill="white"/>
</clipPath>
<clipPath id="clip1_1_2">
<rect width="30" height="30" fill="white"/>
</clipPath>
<clipPath id="clip2_1_2">
<rect width="18" height="18" fill="white" transform="translate(12 -1)"/>
</clipPath>
</defs>
</svg>
