<?xml version="1.0" standalone="no"?>
<!DOCTYPE svg PUBLIC "-//W3C//DTD SVG 20010904//EN"
 "http://www.w3.org/TR/2001/REC-SVG-20010904/DTD/svg10.dtd">
<svg version="1.0" xmlns="http://www.w3.org/2000/svg"
 width="716.000000pt" height="716.000000pt" viewBox="0 0 716.000000 716.000000"
 preserveAspectRatio="xMidYMid meet">
<metadata>
Created by potrace 1.14, written by Peter Selinger 2001-2017
</metadata>
<g transform="translate(0.000000,716.000000) scale(0.100000,-0.100000)"
fill="#000000" stroke="none">
<path d="M1527 6634 c-216 -39 -403 -136 -563 -291 -148 -143 -235 -303 -297
-543 l-21 -85 -3 -2115 -4 -2115 22 -110 c81 -408 349 -717 714 -823 150 -44
129 -43 2255 -40 l2035 3 77 22 c194 55 336 138 467 271 123 126 195 244 252
413 62 186 59 56 59 2346 l0 2092 -25 121 c-46 226 -140 404 -295 560 -139
140 -282 221 -488 278 l-97 27 -2005 2 c-1702 1 -2017 -1 -2083 -13z m4020
-350 c29 -4 50 -10 48 -14 -3 -5 4 -6 14 -3 40 10 247 -79 234 -101 -3 -6 -3
-8 2 -4 11 10 47 -11 40 -23 -4 -5 -3 -9 2 -8 13 3 43 -12 43 -23 0 -5 -5 -6
-12 -2 -7 4 -8 3 -4 -5 4 -6 12 -9 17 -5 15 9 74 -62 113 -135 74 -141 95
-246 95 -486 1 -172 -10 -350 -19 -315 -4 14 -6 -84 -5 -217 l1 -243 -522 0
c-360 0 -525 3 -529 11 -4 6 -9 27 -11 47 -13 130 -56 280 -124 432 -23 52
-43 103 -43 112 -1 9 -5 14 -9 12 -4 -3 -14 9 -23 25 -18 37 -127 181 -175
235 -19 21 -34 44 -32 50 2 6 0 8 -4 4 -10 -11 -85 52 -77 65 3 7 3 9 -2 5 -4
-4 -33 12 -64 36 -298 229 -657 335 -1046 308 -382 -27 -675 -159 -950 -428
-33 -32 -64 -57 -70 -55 -5 1 -7 0 -3 -4 4 -4 -16 -37 -44 -73 -27 -36 -52
-72 -55 -79 -3 -7 -8 -11 -12 -8 -4 2 -8 -1 -8 -8 0 -21 -69 -127 -78 -119 -5
4 -5 2 -2 -4 4 -6 -11 -51 -33 -100 -21 -49 -51 -132 -66 -184 -15 -52 -32
-98 -38 -102 -8 -6 -8 -8 1 -8 8 0 9 -9 2 -32 -5 -18 -9 -52 -9 -76 0 -26 -4
-41 -10 -37 -6 3 -7 -1 -4 -9 6 -14 -49 -16 -524 -16 l-529 0 -2 474 c-2 310
2 497 9 538 13 76 39 161 52 169 5 3 9 9 9 13 -3 20 0 26 11 20 7 -4 8 -3 4 4
-9 15 11 53 26 49 6 -1 13 5 15 13 4 13 3 13 -6 0 -7 -9 -11 -10 -11 -3 0 6 8
18 18 25 9 7 22 22 29 33 6 11 16 19 22 18 6 -2 8 3 5 11 -6 15 18 38 37 34 8
-2 13 3 12 9 -2 7 9 21 25 30 15 10 33 23 40 30 7 7 22 13 33 13 11 0 19 7 19
16 0 10 5 14 16 10 8 -3 12 -2 9 4 -3 6 -4 10 -1 10 2 0 12 3 22 7 12 4 15 3
10 -5 -10 -16 -5 -15 44 7 24 11 50 17 59 14 13 -4 13 -3 2 5 -8 6 -21 8 -30
5 -14 -4 -14 -3 0 6 10 6 48 15 85 20 78 10 3880 14 3961 5z m-1966 -482 c170
-75 198 -252 64 -401 -19 -21 -35 -41 -35 -44 0 -3 30 -10 66 -17 128 -22 275
-80 327 -128 25 -24 27 -31 27 -113 0 -84 2 -93 65 -247 36 -89 65 -167 65
-174 0 -24 -145 -368 -155 -367 -5 0 -66 28 -135 62 l-125 62 -3 163 -2 162
175 0 c96 0 175 2 175 5 0 16 -63 127 -82 145 -20 18 -35 20 -159 20 l-138 0
-63 -48 -63 -47 -3 -173 -2 -172 -95 0 -94 0 -3 -37 -3 -37 -129 -53 c-76 -32
-133 -50 -138 -45 -5 5 -41 88 -79 183 -78 197 -78 162 -6 349 40 103 40 107
38 224 -2 109 0 123 23 170 25 51 76 97 137 123 70 30 150 23 271 -23 68 -27
79 -12 45 59 -79 161 -223 196 -415 102 -83 -41 -177 -127 -207 -190 -18 -35
-20 -62 -20 -210 0 -199 3 -191 -134 -385 -100 -141 -144 -229 -172 -340 -11
-47 -23 -91 -25 -99 -7 -20 -99 73 -124 125 -25 51 -25 115 0 195 23 74 45
109 155 243 82 99 135 174 135 188 0 5 -11 6 -25 2 -22 -5 -27 -1 -40 30 -23
54 -19 162 9 251 76 239 275 424 530 491 118 31 293 29 367 -4z m535 -257
c174 -87 296 -166 336 -215 55 -69 58 -199 7 -271 -17 -25 -23 -27 -52 -18
-17 5 -33 9 -35 9 -9 0 30 -53 131 -182 62 -79 125 -161 140 -183 31 -46 67
-152 67 -199 0 -47 -42 -125 -92 -174 -37 -35 -47 -40 -56 -29 -6 7 -30 67
-52 132 -51 146 -58 160 -166 320 -128 190 -144 230 -144 357 0 79 -5 112 -19
143 -36 78 -122 146 -233 187 -32 11 -58 24 -58 29 0 27 54 169 65 169 7 0 79
-34 161 -75z m-1209 -1153 c73 -185 72 -156 10 -284 -30 -62 -72 -162 -93
-221 l-37 -108 -31 28 c-74 66 -156 148 -156 156 0 12 254 537 260 537 3 0 24
-48 47 -108z m1463 -80 c107 -215 160 -330 160 -347 0 -18 -170 -179 -179
-169 -4 5 -22 47 -40 94 -18 47 -60 140 -93 208 l-61 123 38 97 c56 141 75
185 79 181 2 -2 45 -86 96 -187z m-2270 72 c0 -116 95 -392 189 -548 28 -47
51 -87 51 -91 0 -3 -297 -5 -660 -5 l-660 0 0 335 0 335 540 0 540 0 0 -26z
m4040 -1309 l0 -1335 -524 0 -524 0 -4 402 c-4 392 -4 405 -27 461 -31 80 -77
136 -141 175 -79 47 -109 54 -267 59 l-143 5 0 -135 0 -134 78 -5 c86 -5 142
-29 177 -76 19 -26 20 -45 23 -389 l3 -363 -1216 0 -1215 0 0 860 0 861 86 -3
87 -3 261 -390 c144 -214 376 -564 515 -777 140 -214 257 -388 261 -388 4 0
70 97 146 216 192 297 908 1378 1026 1549 158 228 258 449 288 635 6 41 14 83
16 93 5 16 40 17 550 17 l544 0 0 -1335z m-2426 1206 c214 -112 253 -138 302
-199 73 -91 174 -322 174 -396 0 -20 -38 -62 -122 -135 l-27 -23 -25 51 c-15
28 -29 51 -33 51 -3 0 -3 -33 0 -74 l5 -73 -61 -59 c-34 -33 -79 -75 -100 -94
l-37 -34 -101 99 c-79 79 -102 109 -112 142 -12 45 -27 40 -27 -8 0 -19 -25
-51 -102 -127 -86 -85 -104 -99 -118 -89 -9 7 -54 46 -100 88 l-82 77 1 83 c1
77 -1 82 -14 64 -8 -10 -21 -34 -27 -52 -7 -18 -17 -33 -23 -33 -5 0 -40 28
-78 61 -78 71 -77 63 -26 224 47 150 146 295 235 346 106 60 339 179 353 179
8 0 73 -31 145 -69z m-1654 -1681 l0 -860 -520 0 -520 0 0 860 0 860 520 0
520 0 0 -860z m-232 -1147 l232 -6 0 -294 0 -293 -232 0 c-268 0 -333 10 -448
66 -106 52 -230 177 -289 292 -40 78 -78 212 -66 233 7 11 457 12 803 2z
m1592 -292 l0 -301 -530 0 -530 0 0 294 c0 188 4 296 10 298 6 2 244 5 530 7
l520 3 0 -301z m1248 292 l122 -6 0 -294 0 -293 -535 0 -535 0 0 295 0 294 58
4 c107 6 769 7 890 0z m1470 -7 c2 -3 -5 -41 -17 -86 -56 -223 -219 -401 -431
-472 -59 -20 -90 -22 -332 -26 l-268 -3 0 295 0 296 163 3 c192 4 879 -2 885
-7z"/>
<path d="M5650 5831 c0 -7 -5 -9 -12 -5 -7 5 -8 3 -3 -5 5 -9 10 -10 18 -2 6
6 8 14 4 18 -4 3 -7 1 -7 -6z"/>
<path d="M5650 5788 c0 -11 22 -10 39 1 10 7 7 9 -12 8 -15 -1 -27 -5 -27 -9z"/>
<path d="M5845 5750 c3 -5 8 -10 11 -10 2 0 4 5 4 10 0 6 -5 10 -11 10 -5 0
-7 -4 -4 -10z"/>
<path d="M5890 5679 c0 -5 5 -7 10 -4 6 3 10 8 10 11 0 2 -4 4 -10 4 -5 0 -10
-5 -10 -11z"/>
<path d="M1840 5671 c0 -5 5 -13 10 -16 6 -3 10 -2 10 4 0 5 -4 13 -10 16 -5
3 -10 2 -10 -4z"/>
<path d="M1290 5615 c-6 -8 -10 -19 -8 -26 2 -6 9 0 16 15 13 29 10 33 -8 11z"/>
<path d="M1958 5593 c7 -3 16 -2 19 1 4 3 -2 6 -13 5 -11 0 -14 -3 -6 -6z"/>
<path d="M6112 5580 c0 -14 2 -19 5 -12 2 6 2 18 0 25 -3 6 -5 1 -5 -13z"/>
<path d="M6124 5370 c0 -52 1 -74 3 -47 2 26 2 68 0 95 -2 26 -3 4 -3 -48z"/>
<path d="M5208 4713 c7 -3 16 -2 19 1 4 3 -2 6 -13 5 -11 0 -14 -3 -6 -6z"/>
<path d="M5803 4713 c9 -2 25 -2 35 0 9 3 1 5 -18 5 -19 0 -27 -2 -17 -5z"/>
<path d="M5888 4713 c12 -2 32 -2 45 0 12 2 2 4 -23 4 -25 0 -35 -2 -22 -4z"/>
<path d="M6078 4713 c6 -2 18 -2 25 0 6 3 1 5 -13 5 -14 0 -19 -2 -12 -5z"/>
<path d="M3125 4903 c-29 -32 -82 -129 -75 -137 3 -3 95 -6 205 -8 l200 -3 12
45 11 45 -43 43 -44 42 -120 0 c-118 0 -121 0 -146 -27z"/>
<path d="M5435 3810 c-223 -71 -345 -311 -275 -542 27 -89 57 -150 123 -248
61 -92 276 -370 285 -370 9 0 231 289 289 376 25 37 64 105 87 153 l41 86 0
125 c0 120 -1 128 -32 192 -93 197 -312 293 -518 228z m222 -234 c128 -60 149
-220 43 -323 -95 -92 -245 -61 -306 63 -50 103 -15 207 87 258 66 32 109 33
176 2z"/>
<path d="M5493 2427 c-25 -14 -203 -170 -252 -221 l-35 -36 27 0 27 0 0 -145
0 -145 90 0 90 0 0 86 c0 115 6 124 78 124 32 0 63 -5 70 -12 8 -8 12 -46 12
-105 l0 -93 95 0 95 0 0 145 c0 122 2 145 15 145 8 0 15 4 15 8 0 11 -209 205
-255 236 -43 30 -43 29 -72 13z"/>
<path d="M3448 4084 l-107 -65 -17 -57 c-9 -31 -23 -77 -30 -101 -8 -25 -12
-46 -11 -48 2 -1 39 21 83 50 116 79 168 107 193 107 23 0 154 -73 244 -137
27 -19 47 -28 47 -20 1 6 -12 53 -27 102 l-27 91 -106 66 c-58 37 -112 69
-120 72 -8 3 -63 -24 -122 -60z"/>
<path d="M1236 3208 c-36 -29 -65 -56 -66 -60 0 -4 10 -8 23 -10 22 -3 22 -5
25 -170 l2 -168 125 0 125 0 0 105 0 105 90 0 90 0 0 -105 0 -105 125 0 125 0
0 165 c0 159 1 166 21 173 19 7 14 14 -44 65 l-65 57 -255 0 -255 0 -66 -52z"/>
<path d="M2760 1150 l0 -150 120 0 120 0 0 150 0 150 -120 0 -120 0 0 -150z"/>
</g>
</svg>
